<svg width="427" height="20" viewBox="0 0 427 20" fill="none" xmlns="http://www.w3.org/2000/svg">
<path d="M227.899 10.6359C223.26 15.438 218.228 16.7142 211.931 14.6983C206.383 12.922 201.013 10.3438 195.628 8.13052C191.363 6.37821 187.156 4.34615 182.503 5.79858C178.864 6.93489 176.48 9.53259 174.689 12.7776C174.525 13.0741 173.189 16.1289 174.294 14.7834C182.195 5.16636 193.972 12.9124 203.064 16.5653C207.22 18.2348 211.552 20.3419 216.143 19.9525C220.692 19.5664 223.898 16.6683 226.801 13.3998C227.242 12.9035 228.244 10.2795 227.899 10.6365V10.6359Z" fill="#646464"/>
<path d="M253.97 5.33267C249.331 10.1342 244.299 11.4104 238.002 9.3951C232.455 7.61873 227.085 5.04062 221.699 2.82729C217.434 1.07442 213.227 -0.957072 208.575 0.495354C204.935 1.63167 202.551 4.22937 200.76 7.47383C200.596 7.77035 199.26 10.8251 200.365 9.48014C208.266 -0.136865 220.043 7.60866 229.136 11.2615C233.292 12.9316 237.624 15.0386 242.214 14.6492C246.763 14.2632 249.969 11.3645 252.872 8.09653C253.313 7.60027 254.315 4.97628 253.97 5.33323V5.33267Z" fill="#646464"/>
<path d="M160.961 9.99941C161.717 9.57811 162.401 9.05947 163.012 8.4446C163.623 7.82972 164.138 7.14155 164.557 6.38065C164.749 6.77005 164.971 7.14155 165.223 7.49515C165.475 7.84818 165.754 8.17884 166.06 8.486C166.366 8.79371 166.694 9.07458 167.045 9.32858C167.396 9.58203 167.765 9.80583 168.153 9.99941C167.772 10.2014 167.407 10.4313 167.06 10.6887C166.714 10.9466 166.388 11.2286 166.083 11.5352C165.778 11.8418 165.498 12.1697 165.242 12.5188C164.986 12.8679 164.758 13.2344 164.557 13.6182C164.122 12.8696 163.6 12.1887 162.991 11.5755C162.381 10.9623 161.705 10.4369 160.961 9.99941Z" fill="#646464"/>
<path d="M157.869 9.95925C157.869 10.1875 145.437 10.0544 127.896 11.0715C121.701 11.4301 116.553 11.8352 112.953 12.144C100.533 11.7222 81.7533 11.1565 58.8081 10.7537C25.3637 10.1663 0 10.2233 0 10.0504C0 9.87756 25.3515 9.94358 58.8081 9.32367C81.716 8.89902 100.465 8.29981 112.865 7.8539C116.485 8.137 121.664 8.50962 127.896 8.84699C145.457 9.797 157.869 9.73098 157.869 9.95925Z" fill="#646464"/>
<path d="M209.767 9.99941C210.523 9.57811 211.207 9.05947 211.818 8.4446C212.43 7.82972 212.945 7.14155 213.363 6.38065C213.555 6.77005 213.777 7.14155 214.03 7.49515C214.282 7.84818 214.561 8.17884 214.867 8.486C215.172 8.79371 215.5 9.07458 215.852 9.32858C216.203 9.58203 216.572 9.80583 216.959 9.99941C216.578 10.2014 216.214 10.4313 215.867 10.6887C215.52 10.9461 215.194 11.2286 214.889 11.5352C214.585 11.8418 214.305 12.1697 214.048 12.5188C213.792 12.8679 213.564 13.2344 213.363 13.6182C212.928 12.8696 212.406 12.1887 211.797 11.5755C211.188 10.9623 210.511 10.4369 209.767 9.99941Z" fill="#646464"/>
<path d="M266.039 9.99941C265.283 9.57811 264.599 9.05947 263.988 8.4446C263.377 7.82972 262.862 7.14155 262.443 6.38065C262.251 6.77005 262.029 7.14155 261.777 7.49515C261.525 7.84818 261.246 8.17884 260.94 8.486C260.634 8.79371 260.306 9.07458 259.955 9.32858C259.604 9.58203 259.235 9.80583 258.847 9.99941C259.228 10.2014 259.593 10.4313 259.94 10.6887C260.287 10.9466 260.612 11.2286 260.917 11.5352C261.222 11.8418 261.502 12.1697 261.758 12.5188C262.014 12.8679 262.242 13.2344 262.443 13.6182C262.878 12.8696 263.4 12.1887 264.009 11.5755C264.619 10.9623 265.295 10.4369 266.039 9.99941Z" fill="#646464"/>
<path d="M269.131 9.95925C269.131 10.1875 281.562 10.0544 299.104 11.0715C305.299 11.4301 310.447 11.8352 314.047 12.144C326.466 11.7222 345.247 11.1565 368.192 10.7537C401.636 10.1663 427 10.2233 427 10.0504C427 9.87756 401.649 9.94358 368.192 9.32367C345.284 8.89902 326.535 8.29981 314.135 7.8539C310.515 8.137 305.336 8.50962 299.104 8.84699C281.543 9.797 269.131 9.73098 269.131 9.95925Z" fill="#646464"/>
</svg>
